<?xml version="1.0" standalone="no"?>
<!DOCTYPE svg PUBLIC "-//W3C//DTD SVG 20010904//EN"
 "http://www.w3.org/TR/2001/REC-SVG-20010904/DTD/svg10.dtd">
<svg version="1.0" xmlns="http://www.w3.org/2000/svg"
 width="960.000000pt" height="960.000000pt" viewBox="0 0 960.000000 960.000000"
 preserveAspectRatio="xMidYMid meet">
<metadata>
Created by potrace 1.11, written by Peter Selinger 2001-2013
</metadata>
<g transform="translate(0.000000,960.000000) scale(0.100000,-0.100000)"
fill="#000000" stroke="none">
<path d="M2300 6292 c0 -4 20 -41 45 -80 24 -40 70 -119 102 -175 32 -56 62
-109 68 -118 5 -9 33 -56 60 -104 62 -110 87 -153 149 -257 26 -46 60 -103 73
-128 31 -54 56 -98 103 -177 40 -69 50 -85 114 -200 27 -48 53 -89 58 -91 4
-2 8 -7 8 -11 0 -4 31 -61 69 -127 37 -65 77 -135 87 -154 10 -19 22 -37 25
-40 3 -3 27 -43 53 -90 25 -47 60 -107 77 -135 16 -27 36 -64 44 -82 8 -17 19
-34 25 -38 5 -3 19 -25 30 -48 11 -23 31 -60 44 -82 13 -22 49 -85 81 -140 32
-55 65 -112 74 -127 9 -15 45 -78 81 -140 35 -62 69 -121 75 -130 5 -9 31 -54
58 -100 26 -46 58 -101 72 -123 13 -22 48 -82 77 -133 29 -51 64 -113 78 -136
14 -23 47 -80 73 -127 26 -46 52 -91 57 -99 14 -21 98 -165 128 -220 14 -25
33 -58 43 -75 10 -16 30 -50 44 -75 64 -113 177 -309 240 -415 19 -33 43 -75
52 -93 9 -18 21 -31 27 -29 5 2 22 25 38 53 48 85 78 137 108 189 16 28 33 57
37 65 3 7 23 41 43 75 20 33 48 80 62 105 14 25 49 86 78 135 71 120 86 147
144 251 27 49 53 91 57 94 4 3 13 17 18 30 6 14 23 46 39 71 15 26 41 71 58
100 17 30 66 115 109 189 43 74 85 149 93 165 9 17 19 32 22 35 4 3 17 23 29
45 12 22 33 60 48 85 14 25 33 59 42 75 10 17 33 56 52 88 19 33 43 75 55 95
11 21 31 55 44 77 21 36 91 158 146 254 11 20 53 92 92 160 40 69 72 128 72
132 0 4 4 9 8 11 5 2 30 41 56 88 25 47 57 103 71 125 14 22 36 60 50 85 14
25 37 64 50 88 60 102 73 125 123 213 29 52 64 112 77 134 14 22 46 77 72 123
27 46 60 105 75 130 15 26 39 67 53 92 30 53 53 93 125 215 93 159 104 178
192 334 l56 101 -958 0 -958 0 -18 -27 c-10 -16 -26 -41 -35 -58 -9 -16 -28
-50 -42 -75 -40 -69 -76 -131 -100 -175 -12 -22 -25 -42 -28 -45 -3 -3 -25
-41 -49 -85 -24 -44 -46 -82 -50 -85 -3 -3 -14 -23 -24 -45 -11 -22 -22 -42
-26 -45 -3 -3 -28 -43 -55 -90 -26 -47 -58 -103 -71 -125 -13 -22 -35 -62 -49
-89 -27 -50 -34 -51 -59 -8 -6 11 -32 57 -59 103 -26 46 -61 107 -77 134 -16
28 -51 88 -77 134 -27 45 -57 98 -68 117 -11 18 -42 73 -69 121 -27 48 -52 90
-56 93 -4 3 -15 23 -26 45 -10 22 -21 42 -24 45 -4 3 -26 40 -49 83 l-42 77
-960 0 c-527 0 -959 -4 -959 -8z"/>
<path d="M8743 5529 c4 -24 15 -105 26 -179 51 -347 53 -721 5 -1080 -146
-1108 -748 -2105 -1664 -2757 -591 -420 -1286 -668 -2030 -724 -190 -14 -552
-6 -740 16 -988 119 -1860 572 -2529 1315 -485 539 -821 1226 -955 1952 -28
149 -56 389 -56 472 0 30 -4 57 -8 60 -5 3 -31 -15 -58 -40 -51 -47 -78 -72
-203 -183 -41 -36 -84 -75 -95 -87 -12 -11 -59 -54 -106 -95 -104 -91 -175
-155 -213 -191 -15 -15 -48 -44 -73 -64 l-44 -36 0 -1954 0 -1954 4800 0 4800
0 0 2619 c0 2083 -3 2620 -12 2628 -7 5 -33 16 -58 23 -25 7 -63 21 -85 30
-37 16 -112 45 -300 116 -38 14 -108 41 -155 59 -47 18 -119 46 -160 61 -41
16 -79 31 -84 33 -5 2 -6 -15 -3 -40z"/>
</g>
</svg>
