<?xml version="1.0" encoding="utf-8"?>
<!-- Generator: Adobe Illustrator 16.0.4, SVG Export Plug-In . SVG Version: 6.00 Build 0)  -->
<!DOCTYPE svg PUBLIC "-//W3C//DTD SVG 1.1//EN" "http://www.w3.org/Graphics/SVG/1.1/DTD/svg11.dtd">
<svg version="1.1" id="Layer_1" xmlns="http://www.w3.org/2000/svg" xmlns:xlink="http://www.w3.org/1999/xlink" x="0px" y="0px"
	 width="841.89px" height="461px" viewBox="0 0 841.89 461" enable-background="new 0 0 841.89 461" xml:space="preserve">
<g>
	<rect x="732.983" y="360.733" fill="#41B783" width="85" height="38"/>
	<text transform="matrix(1 0 0 1 745.5195 379.1367)"><tspan x="0" y="0" fill="#FFFFFF" font-family="'ProximaNova-Regular'" font-size="9">user-photo.html</tspan><tspan x="19.678" y="10.799" fill="#FFFFFF" font-family="'ProximaNova-Regular'" font-size="9">(view)</tspan></text>
</g>
<g>
	<rect x="387.53" y="213.371" fill="#36495E" width="85" height="38"/>
	<text transform="matrix(1 0 0 1 407.7993 231.7739)"><tspan x="0" y="0" fill="#FFFFFF" font-family="'ProximaNova-Regular'" font-size="13">VueApp</tspan><tspan x="-1.416" y="10.8" fill="#FFFFFF" font-family="'ProximaNova-Regular'" font-size="9">(component)</tspan></text>
</g>
<g opacity="0.5">
	<g>
		<rect x="203.584" y="275.155" fill="#BE1E2D" width="85" height="38"/>
		<g>
			<g>
				<g>
					<g>
						<g>
							<rect x="196.085" y="294.155" fill="none" width="14.999" height="11.501"/>
						</g>
						<rect x="203.054" y="295.005" fill-rule="evenodd" clip-rule="evenodd" width="1.5" height="2.135"/>
						<rect x="203.054" y="298.834" fill-rule="evenodd" clip-rule="evenodd" width="1.5" height="2.135"/>
						<rect x="203.054" y="302.65" fill-rule="evenodd" clip-rule="evenodd" width="1.5" height="2.134"/>
					</g>
				</g>
				<g>
					<g>
						<g>
							<rect x="196.085" y="282.655" fill="none" width="14.999" height="11.5"/>
						</g>
						<rect x="203.054" y="283.505" fill-rule="evenodd" clip-rule="evenodd" width="1.5" height="2.135"/>
						<rect x="203.054" y="287.333" fill-rule="evenodd" clip-rule="evenodd" width="1.5" height="2.135"/>
						<rect x="203.054" y="291.149" fill-rule="evenodd" clip-rule="evenodd" width="1.5" height="2.135"/>
					</g>
				</g>
				<g>
					<g>
						<g>
							<rect x="211.084" y="267.656" fill="none" width="14" height="14.999"/>
						</g>
						<rect x="221.451" y="274.625" fill-rule="evenodd" clip-rule="evenodd" width="2.599" height="1.5"/>
						<rect x="216.79" y="274.625" fill-rule="evenodd" clip-rule="evenodd" width="2.599" height="1.5"/>
						<rect x="212.145" y="274.625" fill-rule="evenodd" clip-rule="evenodd" width="2.599" height="1.5"/>
					</g>
				</g>
				<g>
					<g>
						<g>
							<rect x="225.084" y="267.656" fill="none" width="14" height="14.999"/>
						</g>
						<rect x="235.452" y="274.625" fill-rule="evenodd" clip-rule="evenodd" width="2.599" height="1.5"/>
						<rect x="230.791" y="274.625" fill-rule="evenodd" clip-rule="evenodd" width="2.599" height="1.5"/>
						<rect x="226.145" y="274.625" fill-rule="evenodd" clip-rule="evenodd" width="2.599" height="1.5"/>
					</g>
				</g>
				<g>
					<g>
						<g>
							<rect x="239.084" y="267.656" fill="none" width="14" height="14.999"/>
						</g>
						<rect x="249.452" y="274.625" fill-rule="evenodd" clip-rule="evenodd" width="2.599" height="1.5"/>
						<rect x="244.791" y="274.625" fill-rule="evenodd" clip-rule="evenodd" width="2.599" height="1.5"/>
						<rect x="240.146" y="274.625" fill-rule="evenodd" clip-rule="evenodd" width="2.599" height="1.5"/>
					</g>
				</g>
				<g>
					<g>
						<g>
							<rect x="253.085" y="267.656" fill="none" width="14" height="14.999"/>
						</g>
						<rect x="263.452" y="274.625" fill-rule="evenodd" clip-rule="evenodd" width="2.599" height="1.5"/>
						<rect x="258.792" y="274.625" fill-rule="evenodd" clip-rule="evenodd" width="2.599" height="1.5"/>
						<rect x="254.146" y="274.625" fill-rule="evenodd" clip-rule="evenodd" width="2.599" height="1.5"/>
					</g>
				</g>
				<g>
					<g>
						<g>
							<rect x="267.085" y="267.656" fill="none" width="14" height="14.999"/>
						</g>
						<rect x="277.452" y="274.625" fill-rule="evenodd" clip-rule="evenodd" width="2.6" height="1.5"/>
						<rect x="272.792" y="274.625" fill-rule="evenodd" clip-rule="evenodd" width="2.599" height="1.5"/>
						<rect x="268.146" y="274.625" fill-rule="evenodd" clip-rule="evenodd" width="2.599" height="1.5"/>
					</g>
				</g>
				<g>
					<g>
						<g>
							<rect x="281.086" y="282.655" fill="none" width="14.998" height="11.5"/>
						</g>
						<rect x="287.615" y="291.171" fill-rule="evenodd" clip-rule="evenodd" width="1.5" height="2.135"/>
						<rect x="287.615" y="287.343" fill-rule="evenodd" clip-rule="evenodd" width="1.5" height="2.135"/>
						<rect x="287.615" y="283.526" fill-rule="evenodd" clip-rule="evenodd" width="1.5" height="2.135"/>
					</g>
				</g>
				<g>
					<g>
						<g>
							<rect x="281.086" y="294.155" fill="none" width="14.998" height="11.501"/>
						</g>
						<rect x="287.615" y="302.672" fill-rule="evenodd" clip-rule="evenodd" width="1.5" height="2.135"/>
						<rect x="287.615" y="298.843" fill-rule="evenodd" clip-rule="evenodd" width="1.5" height="2.135"/>
						<rect x="287.615" y="295.027" fill-rule="evenodd" clip-rule="evenodd" width="1.5" height="2.134"/>
					</g>
				</g>
				<g>
					<g>
						<g>
							<rect x="267.085" y="305.656" fill="none" width="14" height="14.998"/>
						</g>
						<rect x="268.12" y="312.186" fill-rule="evenodd" clip-rule="evenodd" width="2.599" height="1.5"/>
						<rect x="272.78" y="312.186" fill-rule="evenodd" clip-rule="evenodd" width="2.599" height="1.5"/>
						<rect x="277.426" y="312.186" fill-rule="evenodd" clip-rule="evenodd" width="2.6" height="1.5"/>
					</g>
				</g>
				<g>
					<g>
						<g>
							<rect x="253.085" y="305.656" fill="none" width="14" height="14.998"/>
						</g>
						<rect x="254.119" y="312.186" fill-rule="evenodd" clip-rule="evenodd" width="2.599" height="1.5"/>
						<rect x="258.78" y="312.186" fill-rule="evenodd" clip-rule="evenodd" width="2.599" height="1.5"/>
						<rect x="263.426" y="312.186" fill-rule="evenodd" clip-rule="evenodd" width="2.599" height="1.5"/>
					</g>
				</g>
				<g>
					<g>
						<g>
							<rect x="239.084" y="305.656" fill="none" width="14" height="14.998"/>
						</g>
						<rect x="240.119" y="312.186" fill-rule="evenodd" clip-rule="evenodd" width="2.599" height="1.5"/>
						<rect x="244.78" y="312.186" fill-rule="evenodd" clip-rule="evenodd" width="2.599" height="1.5"/>
						<rect x="249.425" y="312.186" fill-rule="evenodd" clip-rule="evenodd" width="2.599" height="1.5"/>
					</g>
				</g>
				<g>
					<g>
						<g>
							<rect x="225.084" y="305.656" fill="none" width="14" height="14.998"/>
						</g>
						<rect x="226.119" y="312.186" fill-rule="evenodd" clip-rule="evenodd" width="2.599" height="1.5"/>
						<rect x="230.779" y="312.186" fill-rule="evenodd" clip-rule="evenodd" width="2.599" height="1.5"/>
						<rect x="235.425" y="312.186" fill-rule="evenodd" clip-rule="evenodd" width="2.599" height="1.5"/>
					</g>
				</g>
				<g>
					<g>
						<g>
							<rect x="211.084" y="305.656" fill="none" width="14" height="14.998"/>
						</g>
						<rect x="212.118" y="312.186" fill-rule="evenodd" clip-rule="evenodd" width="2.599" height="1.5"/>
						<rect x="216.779" y="312.186" fill-rule="evenodd" clip-rule="evenodd" width="2.599" height="1.5"/>
						<rect x="221.425" y="312.186" fill-rule="evenodd" clip-rule="evenodd" width="2.599" height="1.5"/>
					</g>
				</g>
				<g>
					<rect x="202.948" y="279.124" fill-rule="evenodd" clip-rule="evenodd" width="1.506" height="2.501"/>
					<polygon fill-rule="evenodd" clip-rule="evenodd" points="202.948,274.624 202.948,277.124 204.454,277.124 204.454,276.124 
						205.448,276.124 205.448,274.624 					"/>
					<rect x="207.448" y="274.624" fill-rule="evenodd" clip-rule="evenodd" width="2.5" height="1.5"/>
				</g>
				<g>
					<rect x="282.116" y="274.519" fill-rule="evenodd" clip-rule="evenodd" width="2.501" height="1.506"/>
					<polygon fill-rule="evenodd" clip-rule="evenodd" points="289.117,274.519 286.617,274.519 286.617,276.024 287.617,276.024 
						287.617,277.019 289.117,277.019 					"/>
					<rect x="287.617" y="279.019" fill-rule="evenodd" clip-rule="evenodd" width="1.5" height="2.5"/>
				</g>
				<g>
					<rect x="287.716" y="306.687" fill-rule="evenodd" clip-rule="evenodd" width="1.506" height="2.501"/>
					<polygon fill-rule="evenodd" clip-rule="evenodd" points="289.222,313.688 289.222,311.188 287.716,311.188 287.716,312.188 
						286.722,312.188 286.722,313.688 					"/>
					<rect x="282.222" y="312.188" fill-rule="evenodd" clip-rule="evenodd" width="2.5" height="1.5"/>
				</g>
				<g>
					<rect x="207.553" y="312.286" fill-rule="evenodd" clip-rule="evenodd" width="2.501" height="1.506"/>
					<polygon fill-rule="evenodd" clip-rule="evenodd" points="203.053,313.792 205.553,313.792 205.553,312.286 204.553,312.286 
						204.553,311.292 203.053,311.292 					"/>
					<rect x="203.053" y="306.792" fill-rule="evenodd" clip-rule="evenodd" width="1.5" height="2.5"/>
				</g>
			</g>
		</g>
	</g>
	<text transform="matrix(1 0 0 1 212.543 298.5591)" fill="#FFFFFF" font-family="'ProximaNova-Regular'" font-size="12">OtherService</text>
</g>
<g>
	<rect x="235.528" y="213.371" fill="#BE1E2D" stroke="#FFFFFF" stroke-miterlimit="10" width="85" height="38"/>
	<text transform="matrix(1 0 0 1 244.5005 236.7739)" fill="#FFFFFF" font-family="'ProximaNova-Regular'" font-size="13">UserService</text>
</g>
<g>
	<rect x="48.108" y="56.424" fill="#58595B" stroke="#FFFFFF" stroke-miterlimit="10" width="85" height="38"/>
	<text transform="matrix(1 0 0 1 70.4868 80.8276)" fill="#FFFFFF" font-family="'ProximaNova-Regular'" font-size="16.5">HTTP</text>
</g>
<g>
	<rect x="85.027" y="213.371" fill="#808285" stroke="#FFFFFF" stroke-miterlimit="10" width="85" height="38"/>
	<text transform="matrix(1 0 0 1 100.2456 236.7739)" fill="#FFFFFF" font-family="'Chalet-LondonNineteenSixty'" font-size="12">UserHTTP</text>
</g>
<g>
	<g>
		<rect x="91.829" y="103.713" fill="#0FACE0" width="3" height="118.166"/>
		<polygon fill="#0FACE0" points="85.027,103.713 93.329,89.335 101.63,103.713 		"/>
	</g>
	<text transform="matrix(0 -1 1 0 87.8105 146.7866)" fill="#137E9B" font-family="'ProximaNova-Regular'" font-size="10">Extends</text>
</g>
<g opacity="0.5">
	<g>
		<rect x="49.329" y="275.155" fill="#808285" width="85" height="38"/>
		<g>
			<g>
				<g>
					<g>
						<g>
							<rect x="41.829" y="294.155" fill="none" width="14.999" height="11.501"/>
						</g>
						<rect x="48.798" y="295.005" fill-rule="evenodd" clip-rule="evenodd" width="1.5" height="2.135"/>
						<rect x="48.798" y="298.834" fill-rule="evenodd" clip-rule="evenodd" width="1.5" height="2.135"/>
						<rect x="48.798" y="302.65" fill-rule="evenodd" clip-rule="evenodd" width="1.5" height="2.134"/>
					</g>
				</g>
				<g>
					<g>
						<g>
							<rect x="41.829" y="282.655" fill="none" width="14.999" height="11.5"/>
						</g>
						<rect x="48.798" y="283.505" fill-rule="evenodd" clip-rule="evenodd" width="1.5" height="2.135"/>
						<rect x="48.798" y="287.333" fill-rule="evenodd" clip-rule="evenodd" width="1.5" height="2.135"/>
						<rect x="48.798" y="291.149" fill-rule="evenodd" clip-rule="evenodd" width="1.5" height="2.135"/>
					</g>
				</g>
				<g>
					<g>
						<g>
							<rect x="56.828" y="267.656" fill="none" width="14" height="14.999"/>
						</g>
						<rect x="67.195" y="274.625" fill-rule="evenodd" clip-rule="evenodd" width="2.599" height="1.5"/>
						<rect x="62.534" y="274.625" fill-rule="evenodd" clip-rule="evenodd" width="2.599" height="1.5"/>
						<rect x="57.889" y="274.625" fill-rule="evenodd" clip-rule="evenodd" width="2.599" height="1.5"/>
					</g>
				</g>
				<g>
					<g>
						<g>
							<rect x="70.828" y="267.656" fill="none" width="14" height="14.999"/>
						</g>
						<rect x="81.195" y="274.625" fill-rule="evenodd" clip-rule="evenodd" width="2.599" height="1.5"/>
						<rect x="76.535" y="274.625" fill-rule="evenodd" clip-rule="evenodd" width="2.599" height="1.5"/>
						<rect x="71.889" y="274.625" fill-rule="evenodd" clip-rule="evenodd" width="2.599" height="1.5"/>
					</g>
				</g>
				<g>
					<g>
						<g>
							<rect x="84.829" y="267.656" fill="none" width="14" height="14.999"/>
						</g>
						<rect x="95.196" y="274.625" fill-rule="evenodd" clip-rule="evenodd" width="2.599" height="1.5"/>
						<rect x="90.535" y="274.625" fill-rule="evenodd" clip-rule="evenodd" width="2.599" height="1.5"/>
						<rect x="85.889" y="274.625" fill-rule="evenodd" clip-rule="evenodd" width="2.599" height="1.5"/>
					</g>
				</g>
				<g>
					<g>
						<g>
							<rect x="98.829" y="267.656" fill="none" width="14" height="14.999"/>
						</g>
						<rect x="109.196" y="274.625" fill-rule="evenodd" clip-rule="evenodd" width="2.599" height="1.5"/>
						<rect x="104.535" y="274.625" fill-rule="evenodd" clip-rule="evenodd" width="2.599" height="1.5"/>
						<rect x="99.89" y="274.625" fill-rule="evenodd" clip-rule="evenodd" width="2.599" height="1.5"/>
					</g>
				</g>
				<g>
					<g>
						<g>
							<rect x="112.829" y="267.656" fill="none" width="14" height="14.999"/>
						</g>
						<rect x="123.196" y="274.625" fill-rule="evenodd" clip-rule="evenodd" width="2.599" height="1.5"/>
						<rect x="118.536" y="274.625" fill-rule="evenodd" clip-rule="evenodd" width="2.599" height="1.5"/>
						<rect x="113.89" y="274.625" fill-rule="evenodd" clip-rule="evenodd" width="2.599" height="1.5"/>
					</g>
				</g>
				<g>
					<g>
						<g>
							<rect x="126.829" y="282.655" fill="none" width="14.999" height="11.5"/>
						</g>
						<rect x="133.359" y="291.171" fill-rule="evenodd" clip-rule="evenodd" width="1.5" height="2.135"/>
						<rect x="133.359" y="287.343" fill-rule="evenodd" clip-rule="evenodd" width="1.5" height="2.135"/>
						<rect x="133.359" y="283.526" fill-rule="evenodd" clip-rule="evenodd" width="1.5" height="2.135"/>
					</g>
				</g>
				<g>
					<g>
						<g>
							<rect x="126.829" y="294.155" fill="none" width="14.999" height="11.501"/>
						</g>
						<rect x="133.359" y="302.672" fill-rule="evenodd" clip-rule="evenodd" width="1.5" height="2.135"/>
						<rect x="133.359" y="298.843" fill-rule="evenodd" clip-rule="evenodd" width="1.5" height="2.135"/>
						<rect x="133.359" y="295.027" fill-rule="evenodd" clip-rule="evenodd" width="1.5" height="2.134"/>
					</g>
				</g>
				<g>
					<g>
						<g>
							<rect x="112.829" y="305.656" fill="none" width="14" height="14.998"/>
						</g>
						<rect x="113.863" y="312.186" fill-rule="evenodd" clip-rule="evenodd" width="2.599" height="1.5"/>
						<rect x="118.524" y="312.186" fill-rule="evenodd" clip-rule="evenodd" width="2.599" height="1.5"/>
						<rect x="123.17" y="312.186" fill-rule="evenodd" clip-rule="evenodd" width="2.599" height="1.5"/>
					</g>
				</g>
				<g>
					<g>
						<g>
							<rect x="98.829" y="305.656" fill="none" width="14" height="14.998"/>
						</g>
						<rect x="99.863" y="312.186" fill-rule="evenodd" clip-rule="evenodd" width="2.599" height="1.5"/>
						<rect x="104.524" y="312.186" fill-rule="evenodd" clip-rule="evenodd" width="2.599" height="1.5"/>
						<rect x="109.169" y="312.186" fill-rule="evenodd" clip-rule="evenodd" width="2.599" height="1.5"/>
					</g>
				</g>
				<g>
					<g>
						<g>
							<rect x="84.829" y="305.656" fill="none" width="14" height="14.998"/>
						</g>
						<rect x="85.863" y="312.186" fill-rule="evenodd" clip-rule="evenodd" width="2.599" height="1.5"/>
						<rect x="90.524" y="312.186" fill-rule="evenodd" clip-rule="evenodd" width="2.599" height="1.5"/>
						<rect x="95.169" y="312.186" fill-rule="evenodd" clip-rule="evenodd" width="2.599" height="1.5"/>
					</g>
				</g>
				<g>
					<g>
						<g>
							<rect x="70.828" y="305.656" fill="none" width="14" height="14.998"/>
						</g>
						<rect x="71.863" y="312.186" fill-rule="evenodd" clip-rule="evenodd" width="2.599" height="1.5"/>
						<rect x="76.523" y="312.186" fill-rule="evenodd" clip-rule="evenodd" width="2.599" height="1.5"/>
						<rect x="81.169" y="312.186" fill-rule="evenodd" clip-rule="evenodd" width="2.599" height="1.5"/>
					</g>
				</g>
				<g>
					<g>
						<g>
							<rect x="56.828" y="305.656" fill="none" width="14" height="14.998"/>
						</g>
						<rect x="57.862" y="312.186" fill-rule="evenodd" clip-rule="evenodd" width="2.599" height="1.5"/>
						<rect x="62.523" y="312.186" fill-rule="evenodd" clip-rule="evenodd" width="2.599" height="1.5"/>
						<rect x="67.169" y="312.186" fill-rule="evenodd" clip-rule="evenodd" width="2.599" height="1.5"/>
					</g>
				</g>
				<g>
					<rect x="48.692" y="279.124" fill-rule="evenodd" clip-rule="evenodd" width="1.506" height="2.501"/>
					<polygon fill-rule="evenodd" clip-rule="evenodd" points="48.692,274.624 48.692,277.124 50.198,277.124 50.198,276.124 
						51.192,276.124 51.192,274.624 					"/>
					<rect x="53.192" y="274.624" fill-rule="evenodd" clip-rule="evenodd" width="2.5" height="1.5"/>
				</g>
				<g>
					<rect x="127.859" y="274.519" fill-rule="evenodd" clip-rule="evenodd" width="2.501" height="1.506"/>
					<polygon fill-rule="evenodd" clip-rule="evenodd" points="134.86,274.519 132.36,274.519 132.36,276.024 133.36,276.024 
						133.36,277.019 134.86,277.019 					"/>
					<rect x="133.36" y="279.019" fill-rule="evenodd" clip-rule="evenodd" width="1.5" height="2.5"/>
				</g>
				<g>
					<rect x="133.459" y="306.687" fill-rule="evenodd" clip-rule="evenodd" width="1.506" height="2.501"/>
					<polygon fill-rule="evenodd" clip-rule="evenodd" points="134.965,313.688 134.965,311.188 133.459,311.188 133.459,312.188 
						132.465,312.188 132.465,313.688 					"/>
					<rect x="127.965" y="312.188" fill-rule="evenodd" clip-rule="evenodd" width="2.5" height="1.5"/>
				</g>
				<g>
					<rect x="53.297" y="312.286" fill-rule="evenodd" clip-rule="evenodd" width="2.501" height="1.506"/>
					<polygon fill-rule="evenodd" clip-rule="evenodd" points="48.797,313.792 51.297,313.792 51.297,312.286 50.297,312.286 
						50.297,311.292 48.797,311.292 					"/>
					<rect x="48.797" y="306.792" fill-rule="evenodd" clip-rule="evenodd" width="1.5" height="2.5"/>
				</g>
			</g>
		</g>
	</g>
	<text transform="matrix(1 0 0 1 61.6611 298.5596)" fill="#FFFFFF" font-family="'Chalet-LondonNineteenSixty'" font-size="12">OtherHTTP</text>
</g>
<g>
	<g>
		<rect x="178.031" y="230.871" fill="#0FACE0" width="61.666" height="3"/>
		<polygon fill="#0FACE0" points="178.031,224.069 163.652,232.371 178.031,240.672 		"/>
	</g>
	<text transform="matrix(1 0 0 1 196.1753 226.8525)" fill="#137E9B" font-family="'ProximaNova-Regular'" font-size="10">Calls</text>
</g>
<g>
	
		<rect x="198.585" y="47.667" fill="#E6E7E8" stroke="#6D6E71" stroke-width="0.25" stroke-miterlimit="10" width="85" height="56.046"/>
	<text transform="matrix(1 0 0 1 228.8423 80.8276)" fill="#414042" font-family="'ProximaNova-Regular'" font-size="16.5">API</text>
</g>
<g>
	<g>
		<rect x="127.819" y="73.924" fill="#0FACE0" width="61.667" height="3"/>
		<polygon fill="#0FACE0" points="189.485,67.123 203.864,75.424 189.485,83.726 		"/>
	</g>
	<text transform="matrix(1 0 0 1 153.3423 69.9062)" fill="#137E9B" font-family="'ProximaNova-Regular'" font-size="10">Calls</text>
</g>
<g opacity="0.5">
	<g>
		<polygon fill="#0FACE0" points="48.108,103.713 56.41,89.335 64.711,103.713 		"/>
		<g>
			<rect x="54.91" y="147.43" fill="#0FACE0" width="3" height="6.742"/>
			<rect x="54.91" y="106.977" fill="#0FACE0" width="3" height="6.742"/>
			<rect x="54.91" y="160.915" fill="#0FACE0" width="3" height="4.465"/>
			<rect x="54.91" y="120.461" fill="#0FACE0" width="3" height="6.742"/>
			<rect x="54.91" y="133.946" fill="#0FACE0" width="3" height="6.742"/>
		</g>
		<g>
			<rect x="54.91" y="201.381" fill="#0FACE0" width="3" height="6.742"/>
			<rect x="54.91" y="160.928" fill="#0FACE0" width="3" height="6.742"/>
			<rect x="54.91" y="214.866" fill="#0FACE0" width="3" height="4.465"/>
			<rect x="54.91" y="174.413" fill="#0FACE0" width="3" height="6.742"/>
			<rect x="54.91" y="187.897" fill="#0FACE0" width="3" height="6.742"/>
		</g>
		<g>
			<rect x="54.91" y="241.695" fill="#0FACE0" width="3" height="6.742"/>
			<rect x="54.91" y="201.242" fill="#0FACE0" width="3" height="6.742"/>
			<rect x="54.91" y="255.18" fill="#0FACE0" width="3" height="4.466"/>
			<rect x="54.91" y="214.727" fill="#0FACE0" width="3" height="6.742"/>
			<rect x="54.91" y="228.211" fill="#0FACE0" width="3" height="6.742"/>
		</g>
		<g>
			<rect x="54.91" y="255.18" fill="#0FACE0" width="3" height="6.742"/>
			<rect x="54.91" y="214.727" fill="#0FACE0" width="3" height="6.742"/>
			<rect x="54.91" y="268.664" fill="#0FACE0" width="3" height="4.466"/>
			<rect x="54.91" y="228.211" fill="#0FACE0" width="3" height="6.742"/>
			<rect x="54.91" y="241.695" fill="#0FACE0" width="3" height="6.742"/>
		</g>
	</g>
	<text transform="matrix(0 -1 1 0 50.8916 146.7876)" fill="#137E9B" font-family="'ProximaNova-Regular'" font-size="10">Extends</text>
</g>
<g opacity="0.5">
	<g>
		<polygon fill="#0FACE0" points="142.383,285.854 128.005,294.155 142.383,302.457 		"/>
		<g>
			<rect x="186.1" y="292.655" fill="#0FACE0" width="6.742" height="3"/>
			<rect x="145.647" y="292.655" fill="#0FACE0" width="6.742" height="3"/>
			<rect x="199.584" y="292.655" fill="#0FACE0" width="4.465" height="3"/>
			<rect x="159.131" y="292.655" fill="#0FACE0" width="6.742" height="3"/>
			<rect x="172.616" y="292.655" fill="#0FACE0" width="6.742" height="3"/>
		</g>
	</g>
	<text transform="matrix(1 0 0 1 161.5293 288.6377)" fill="#137E9B" font-family="'ProximaNova-Regular'" font-size="10">Calls</text>
</g>
<g>
	<g>
		<rect x="329.612" y="230.871" fill="#0FACE0" width="61.666" height="3"/>
		<polygon fill="#0FACE0" points="329.612,224.069 315.233,232.371 329.612,240.672 		"/>
	</g>
	<text transform="matrix(1 0 0 1 336.856 226.8525)" fill="#137E9B" font-family="'ProximaNova-Regular'" font-size="9">Instantiates</text>
</g>
<g>
	<rect x="533.197" y="264.399" fill="#36495E" width="85" height="38"/>
	<text transform="matrix(1 0 0 1 553.7129 282.8032)"><tspan x="0" y="0" fill="#FFFFFF" font-family="'ProximaNova-Regular'" font-size="13">UserList</tspan><tspan x="-1.662" y="10.8" fill="#FFFFFF" font-family="'ProximaNova-Regular'" font-size="9">(component)</tspan></text>
</g>
<g>
	<rect x="532.198" y="161.062" fill="#36495E" width="85" height="38"/>
	<text transform="matrix(1 0 0 1 553.6309 179.4658)"><tspan x="0" y="0" fill="#FFFFFF" font-family="'ProximaNova-Regular'" font-size="13">PostList</tspan><tspan x="-2.579" y="10.8" fill="#FFFFFF" font-family="'ProximaNova-Regular'" font-size="9">(component)</tspan></text>
</g>
<g>
	<g>
		
			<rect x="505.609" y="157.719" transform="matrix(0.5332 0.846 -0.846 0.5332 402.1348 -337.7425)" fill="#0FACE0" width="3" height="75.599"/>
		<polygon fill="#0FACE0" points="470.705,208.65 462.967,223.34 479.558,222.696 		"/>
	</g>
	
		<text transform="matrix(0.846 -0.5332 0.5332 0.846 484.5918 203.2397)" fill="#137E9B" font-family="'ProximaNova-Regular'" font-size="9">Child of</text>
</g>
<g>
	<g>
		
			<rect x="498.503" y="234.858" transform="matrix(0.5332 -0.846 0.846 0.5332 8.6351 547.031)" fill="#0FACE0" width="3" height="61.666"/>
		<polygon fill="#0FACE0" points="469.493,256.273 461.755,241.583 478.346,242.228 		"/>
	</g>
	
		<text transform="matrix(0.8501 0.5266 -0.5266 0.8501 480.4648 264.6094)" fill="#137E9B" font-family="'ProximaNova-Regular'" font-size="9">Child of</text>
</g>
<g>
	<g>
		
			<rect x="518.493" y="301.66" transform="matrix(0.7925 0.6099 -0.6099 0.7925 310.6624 -248.1315)" fill="#0FACE0" width="2.999" height="61.666"/>
		<polygon fill="#0FACE0" points="532.214,302.994 547.561,296.658 545.373,313.117 		"/>
	</g>
	
		<text transform="matrix(0.6098 -0.7926 0.7926 0.6098 506.627 342.2666)" fill="#137E9B" font-family="'ProximaNova-Regular'" font-size="10">Child of</text>
</g>
<g>
	<rect x="461.755" y="360.733" fill="#36495E" width="85" height="38"/>
	<text transform="matrix(1 0 0 1 474.458 379.1367)"><tspan x="0" y="0" fill="#FFFFFF" font-family="'ProximaNova-Regular'" font-size="13">FriendsList</tspan><tspan x="6.15" y="10.8" fill="#FFFFFF" font-family="'ProximaNova-Regular'" font-size="9">(component)</tspan></text>
</g>
<g>
	<g>
		<rect x="608.395" y="308.85" transform="matrix(1 0.0085 -0.0085 1 2.867 -5.1496)" fill="#0FACE0" width="3" height="54.651"/>
		<polygon fill="#0FACE0" points="601.595,308.85 609.896,294.472 618.197,308.85 		"/>
	</g>
	<text transform="matrix(0 -1 1 0 604.3779 351.2383)" fill="#137E9B" font-family="'ProximaNova-Regular'" font-size="10">Child of</text>
</g>
<g>
	<rect x="567.396" y="360.733" fill="#36495E" width="85" height="38"/>
	<text transform="matrix(1 0 0 1 580.7617 379.1367)"><tspan x="0" y="0" fill="#FFFFFF" font-family="'ProximaNova-Regular'" font-size="13">UserPhoto</tspan><tspan x="5.487" y="10.8" fill="#FFFFFF" font-family="'ProximaNova-Regular'" font-size="9">(component)</tspan></text>
</g>
<g>
	<rect x="267.095" y="156.595" fill="#BE1E2D" stroke="#FFFFFF" stroke-miterlimit="10" width="85.001" height="38"/>
	<text transform="matrix(1 0 0 1 276.9844 179.998)" fill="#FFFFFF" font-family="'ProximaNova-Regular'" font-size="13">PostService</text>
</g>
<g>
	<rect x="116.595" y="156.595" fill="#808285" stroke="#FFFFFF" stroke-miterlimit="10" width="85" height="38"/>
	<text transform="matrix(1 0 0 1 132.269 179.998)" fill="#FFFFFF" font-family="'Chalet-LondonNineteenSixty'" font-size="12">PostHTTP</text>
</g>
<g>
	<g>
		<rect x="123.396" y="103.713" fill="#0FACE0" width="3" height="61.667"/>
		<polygon fill="#0FACE0" points="116.595,103.713 124.896,89.335 133.197,103.713 		"/>
	</g>
	<text transform="matrix(0 -1 1 0 119.3779 146.7876)" fill="#137E9B" font-family="'ProximaNova-Regular'" font-size="10">Extends</text>
</g>
<g>
	<g>
		<rect x="209.599" y="174.095" fill="#0FACE0" width="61.666" height="3"/>
		<polygon fill="#0FACE0" points="209.599,167.293 195.22,175.595 209.599,183.896 		"/>
	</g>
	<text transform="matrix(1 0 0 1 227.7427 170.0767)" fill="#137E9B" font-family="'ProximaNova-Regular'" font-size="10">Calls</text>
</g>
<g>
	<g>
		<rect x="361.18" y="174.095" fill="#0FACE0" width="178.707" height="3"/>
		<polygon fill="#0FACE0" points="361.18,167.293 346.801,175.595 361.18,183.896 		"/>
	</g>
	<text transform="matrix(1 0 0 1 368.4233 170.0767)" fill="#137E9B" font-family="'ProximaNova-Regular'" font-size="9">Instantiates</text>
</g>
<g>
	<g>
		<rect x="662.698" y="378.233" fill="#0FACE0" width="61.666" height="3"/>
		<polygon fill="#0FACE0" points="662.698,371.433 648.319,379.733 662.698,388.034 		"/>
	</g>
	<text transform="matrix(1 0 0 1 672.8232 374.2148)" fill="#137E9B" font-family="'ProximaNova-Regular'" font-size="10">Template</text>
	<g>
		<rect x="660.985" y="378.233" fill="#0FACE0" width="61.666" height="3"/>
		<polygon fill="#0FACE0" points="722.651,371.433 737.03,379.733 722.651,388.034 		"/>
	</g>
</g>
<g>
	<rect x="297.65" y="360.733" fill="#41B783" width="85" height="38"/>
	<text transform="matrix(1 0 0 1 307.3364 379.1367)"><tspan x="0" y="0" fill="#FFFFFF" font-family="'ProximaNova-Regular'" font-size="11">friend-list.html</tspan><tspan x="22.527" y="10.799" fill="#FFFFFF" font-family="'ProximaNova-Regular'" font-size="9">(view)</tspan></text>
</g>
<g>
	<g>
		<rect x="392.283" y="378.233" fill="#0FACE0" width="61.666" height="3"/>
		<polygon fill="#0FACE0" points="392.283,371.433 377.904,379.733 392.283,388.034 		"/>
	</g>
	<text transform="matrix(1 0 0 1 402.4082 374.2148)" fill="#137E9B" font-family="'ProximaNova-Regular'" font-size="10">Template</text>
	<g>
		<rect x="390.57" y="378.233" fill="#0FACE0" width="61.666" height="3"/>
		<polygon fill="#0FACE0" points="452.236,371.433 466.615,379.733 452.236,388.034 		"/>
	</g>
</g>
<g>
	<rect x="697.592" y="161.062" fill="#41B783" width="85" height="38"/>
	<text transform="matrix(1 0 0 1 705.1992 179.4653)"><tspan x="0" y="0" fill="#FFFFFF" font-family="'ProximaNova-Regular'" font-size="13">post-list.html</tspan><tspan x="24.606" y="10.8" fill="#FFFFFF" font-family="'ProximaNova-Regular'" font-size="9">(view)</tspan></text>
</g>
<g>
	<g>
		<rect x="627.307" y="178.562" fill="#0FACE0" width="61.666" height="3"/>
		<polygon fill="#0FACE0" points="627.307,171.762 612.928,180.062 627.307,188.363 		"/>
	</g>
	<text transform="matrix(1 0 0 1 637.4316 174.5444)" fill="#137E9B" font-family="'ProximaNova-Regular'" font-size="10">Template</text>
	<g>
		<rect x="625.594" y="178.562" fill="#0FACE0" width="61.666" height="3"/>
		<polygon fill="#0FACE0" points="687.26,171.762 701.639,180.062 687.26,188.363 		"/>
	</g>
</g>
<g>
	<rect x="502.334" y="63.165" fill="#4375A0" width="71.562" height="38"/>
	<text transform="matrix(1 0 0 1 509.9092 81.5684)"><tspan x="0" y="0" fill="#FFFFFF" font-family="'ProximaNova-Regular'" font-size="13">MovePost</tspan><tspan x="9.132" y="10.8" fill="#FFFFFF" font-family="'ProximaNova-Regular'" font-size="9">(directive)</tspan></text>
</g>
<g>
	<g>
		<rect x="536.099" y="97.245" transform="matrix(1 -0.0085 0.0085 1 -1.035 4.5543)" fill="#0FACE0" width="3" height="54.651"/>
		<polygon fill="#0FACE0" points="529.299,151.896 537.6,166.274 545.9,151.896 		"/>
	</g>
	<text transform="matrix(0 -1 1 0 532.082 143.998)" fill="#137E9B" font-family="'ProximaNova-Regular'" font-size="10">Child of</text>
</g>
<g>
	<rect x="576.5" y="63.165" fill="#4375A0" width="73" height="38"/>
	<text transform="matrix(1 0 0 1 581.1758 79.5684)"><tspan x="0" y="0" fill="#FFFFFF" font-family="'ProximaNova-Regular'" font-size="9">FormatPostDate</tspan><tspan x="21.01" y="10.8" fill="#FFFFFF" font-family="'ProximaNova-Regular'" font-size="9">(filter)</tspan></text>
</g>
<g>
	<g>
		<rect x="610.964" y="97.245" transform="matrix(1 -0.0085 0.0085 1 -1.0323 5.1879)" fill="#0FACE0" width="3" height="54.651"/>
		<polygon fill="#0FACE0" points="604.164,151.896 612.465,166.274 620.766,151.896 		"/>
	</g>
	<text transform="matrix(0 -1 1 0 606.9473 143.998)" fill="#137E9B" font-family="'ProximaNova-Regular'" font-size="10">Child of</text>
</g>
<g opacity="0.5">
	<g>
		<rect x="359.165" y="275.155" fill="#36495E" width="85" height="38"/>
	</g>
	<text transform="matrix(1 0 0 1 371.873 292.5591)"><tspan x="0" y="0" fill="#FFFFFF" font-family="'ProximaNova-Regular'" font-size="12">OtherComp</tspan><tspan x="6.146" y="10.8" fill="#FFFFFF" font-family="'ProximaNova-Regular'" font-size="9">(component)</tspan></text>
</g>
<g opacity="0.5">
	<g>
		<polygon fill="#0FACE0" points="297.963,285.854 283.585,294.155 297.963,302.457 		"/>
		<g>
			<rect x="341.68" y="292.655" fill="#0FACE0" width="6.742" height="3"/>
			<rect x="301.227" y="292.655" fill="#0FACE0" width="6.742" height="3"/>
			<rect x="355.165" y="292.655" fill="#0FACE0" width="4.465" height="3"/>
			<rect x="314.711" y="292.655" fill="#0FACE0" width="6.742" height="3"/>
			<rect x="328.196" y="292.655" fill="#0FACE0" width="6.742" height="3"/>
		</g>
	</g>
	<text transform="matrix(1 0 0 1 305.209 288.6377)" fill="#137E9B" font-family="'ProximaNova-Regular'" font-size="9">Instantiates</text>
</g>
<g>
	<rect x="394.529" y="62.568" fill="#4375A0" width="73" height="38"/>
	<text transform="matrix(1 0 0 1 403.0898 80.9717)"><tspan x="0" y="0" fill="#FFFFFF" font-family="'ProximaNova-Regular'" font-size="13">Capitalize</tspan><tspan x="17.125" y="10.8" fill="#FFFFFF" font-family="'ProximaNova-Regular'" font-size="9">(filter)</tspan></text>
</g>
<g>
	<g>
		<polygon fill="#0FACE0" points="432.179,97.453 429.179,97.526 429.227,203.965 432.227,203.892 		"/>
		<polygon fill="#0FACE0" points="422.193,203.953 430.494,218.702 438.795,203.953 		"/>
	</g>
	<text transform="matrix(0 -1 1 0 424.9766 147.4258)" fill="#137E9B" font-family="'ProximaNova-Regular'" font-size="10">Child of</text>
</g>
</svg>
